<svg version="1.1" id="Layer_1" xmlns="http://www.w3.org/2000/svg" xmlns:xlink="http://www.w3.org/1999/xlink" x="0px" y="0px"
	 width="100%" viewBox="0 0 544 448" enable-background="new 0 0 544 448" xml:space="preserve">
<path fill="#000000" opacity="1.000000" stroke="none" 
	d="
M127.000000,449.000000 
	C105.979103,449.000000 84.958214,449.000000 63.497749,448.669067 
	C62.499516,441.027863 65.052383,433.748230 63.344601,426.439453 
	C62.280739,421.886505 63.095062,417.814148 66.143990,414.284088 
	C71.449287,408.141693 72.649361,400.958191 71.620049,393.203522 
	C70.866455,387.526062 71.179283,381.916718 72.220955,376.295959 
	C75.860863,356.655182 78.720230,336.872314 83.565765,317.454529 
	C89.572136,293.384796 89.845863,269.100769 86.417686,244.572968 
	C84.147690,228.331604 84.774323,211.994003 88.048950,195.861618 
	C90.841743,182.102921 95.078903,168.817108 101.188324,156.122803 
	C104.509064,149.222885 107.913483,142.233200 109.219620,134.633362 
	C112.440865,115.890335 117.748421,97.608398 121.245926,78.938431 
	C123.725388,65.702911 130.632919,55.350574 140.668167,46.679256 
	C147.969147,40.370583 155.275208,34.043133 161.625519,26.707561 
	C169.283173,17.861820 169.712250,10.983848 163.000000,1.000000 
	C214.354233,1.000000 265.708466,1.000000 317.493073,1.374122 
	C317.048706,5.623713 316.166870,9.497601 315.300720,13.374982 
	C313.634369,20.834484 307.166779,24.490021 301.901855,20.538223 
	C298.579803,18.044697 295.223358,17.013680 291.260223,17.314846 
	C289.034088,17.484015 286.954407,16.964537 285.014526,15.920869 
	C281.758087,14.168869 278.463501,14.317626 274.868652,14.912541 
	C260.837921,17.234509 247.271683,22.151220 232.875458,22.423765 
	C230.120377,22.475927 228.458450,24.052166 228.389343,26.782000 
	C228.320709,29.493618 230.169067,30.350367 232.641235,30.621977 
	C240.831207,31.521788 248.517853,32.551914 255.522888,38.504143 
	C263.539978,45.316330 265.811279,54.180103 268.223450,63.251457 
	C269.133850,66.675079 268.424652,70.544098 268.360931,74.208466 
	C268.272247,79.308983 269.983093,82.848640 275.555420,83.866516 
	C278.420959,84.389938 281.363403,86.083611 281.183594,89.296509 
	C280.704376,97.859970 283.567474,106.056145 283.415680,114.561066 
	C283.271454,122.641998 286.447388,124.463280 294.051270,121.050858 
	C298.623871,118.998787 303.340302,117.501305 308.466278,117.647453 
	C310.455170,117.704163 311.988647,118.134071 312.927490,120.090004 
	C315.576813,125.609497 319.920441,128.185181 326.122345,127.693535 
	C328.229858,127.526459 330.662598,127.245209 332.097076,129.348160 
	C336.172577,135.322662 341.699249,134.231979 347.249207,132.483231 
	C351.798035,131.049927 355.555023,131.323776 358.768280,135.415161 
	C361.948639,139.464630 367.428070,139.776321 372.250183,136.827988 
	C378.115173,133.242050 383.994690,129.528793 391.213928,133.644333 
	C392.949158,134.633560 394.363251,133.657822 395.652649,132.421783 
	C396.970001,131.158966 398.293976,129.866837 399.780609,128.823410 
	C404.997925,125.161446 404.955444,122.518578 400.112518,118.432274 
	C395.434326,114.484924 392.456329,109.005035 391.891052,103.143242 
	C391.341705,97.446983 389.152618,93.334732 384.889679,90.062431 
	C382.853180,88.499176 380.590607,86.617447 380.206879,84.437134 
	C379.090790,78.095726 374.350952,75.550644 369.642273,72.715271 
	C365.688019,70.334175 362.583801,67.539536 362.316010,62.278969 
	C362.159943,59.212276 360.724182,56.278244 357.612213,54.494240 
	C350.436127,50.380379 346.169281,44.067322 344.828278,35.956451 
	C344.064117,31.334665 342.465424,26.988665 341.256104,22.513124 
	C339.143616,14.695232 333.380890,8.660851 331.000000,1.000000 
	C402.285675,1.000000 473.571381,1.000000 545.000000,1.000000 
	C545.000000,147.687531 545.000000,294.375122 544.696289,441.660828 
	C542.872559,443.488495 541.391846,444.771088 539.821533,445.932617 
	C538.229187,447.110504 538.741943,448.048431 540.000000,449.000000 
	C419.312439,449.000000 298.624878,449.000000 177.756714,448.769623 
	C179.618378,447.862122 181.663437,447.193237 183.702148,446.505554 
	C185.744003,445.816803 187.411194,444.515045 187.450363,442.315186 
	C187.512039,438.851685 189.197433,435.939392 190.149765,432.787628 
	C191.719910,427.591187 190.767578,421.529633 187.882782,419.497009 
	C183.987747,416.752625 175.977173,417.058258 171.905014,420.136047 
	C170.722946,421.029510 169.743484,422.334106 168.087479,422.279907 
	C164.713455,422.169495 163.562592,423.842499 163.169998,427.094574 
	C162.756195,430.522308 160.604233,431.128967 157.929657,428.805939 
	C156.926559,427.934662 155.876114,427.060974 155.089645,426.007477 
	C152.375534,422.371918 149.977676,422.959259 146.305832,425.265533 
	C141.942566,428.006073 138.820038,432.549500 133.843262,434.135773 
	C125.805466,436.697632 123.477692,441.407562 127.000000,449.000000 
M415.937714,231.349121 
	C413.665710,232.114990 412.229950,234.661560 409.046051,234.629379 
	C407.753540,222.948669 408.459015,211.290878 411.464478,200.500137 
	C414.504272,189.586380 415.119293,179.069458 413.854645,168.145660 
	C412.923706,160.104492 408.902588,152.700241 408.879364,144.451996 
	C408.869080,140.798233 406.434631,138.306900 404.267273,135.848022 
	C401.538788,132.752548 397.322144,132.999054 396.716980,136.383392 
	C395.752899,141.774994 392.416992,140.718658 389.927307,138.969559 
	C384.221954,134.961334 379.253387,137.023163 374.234985,139.854095 
	C366.806671,144.044495 359.883514,145.219086 354.083466,137.234665 
	C353.896088,136.976685 353.588989,136.774841 353.296661,136.629120 
	C351.824493,135.895126 350.275177,134.716293 348.683899,136.044113 
	C346.855804,137.569580 348.119934,138.996277 349.190674,140.326981 
	C350.249054,141.642258 350.907043,143.361633 348.915680,143.972839 
	C341.785980,146.161072 338.419678,152.270813 334.397308,157.605026 
	C332.107269,160.641876 329.429810,162.002792 325.883575,161.255280 
	C320.624634,160.146759 315.702057,161.315567 310.844177,163.021637 
	C305.522339,164.890640 301.664246,167.823273 301.126740,174.245804 
	C300.802979,178.114243 298.850189,181.973602 293.759918,181.104828 
	C289.392578,180.359467 289.408386,182.494156 290.670532,185.286453 
	C292.780304,189.954056 293.791534,195.045502 293.149139,199.814941 
	C292.248535,206.501602 295.067780,209.653107 300.742920,211.517075 
	C301.213043,211.671494 301.658234,211.916534 302.094696,212.156448 
	C308.480682,215.666992 308.952209,219.731354 303.530762,224.517654 
	C300.040619,227.598938 296.862427,230.940598 294.097504,234.720032 
	C292.261475,237.229736 292.527924,239.301025 294.512817,241.369720 
	C296.471130,243.410751 298.342316,245.892136 301.660553,243.506271 
	C303.398163,242.256882 305.143768,242.676361 306.810028,243.657776 
	C309.861847,245.455215 313.048462,246.790848 316.670410,246.691269 
	C318.496185,246.641098 319.458801,247.821320 319.982819,249.243469 
	C321.234894,252.641327 324.163940,254.776581 326.198395,257.568237 
	C327.959625,259.984924 331.113983,261.097382 334.277832,260.476471 
	C337.410858,259.861633 338.101868,257.143097 338.653870,254.463837 
	C339.656586,249.596481 340.678589,244.733093 341.690643,239.867645 
	C342.563110,235.673218 344.821686,232.037033 348.875397,231.065491 
	C353.053802,230.064056 357.596130,230.601898 361.685883,228.361725 
	C362.406281,230.982742 362.770416,232.981674 364.192535,234.482559 
	C368.325500,238.844482 367.144745,243.229538 364.095459,247.457962 
	C363.047668,248.910965 362.197357,252.031403 359.877014,250.617767 
	C357.321381,249.060745 359.447632,246.909454 360.654175,245.162186 
	C361.119568,244.488220 361.315002,243.619797 361.810303,242.976044 
	C363.309082,241.028030 363.632721,239.057373 361.947083,237.121750 
	C360.343811,235.280701 358.336090,234.075729 355.787781,234.657700 
	C352.888245,235.319870 349.720337,235.645782 347.252472,237.104691 
	C345.121246,238.364578 346.929718,241.513702 346.067139,243.677582 
	C345.943848,243.986847 345.759094,244.296722 345.734528,244.616425 
	C345.331665,249.855194 342.006927,254.186279 341.195740,259.301880 
	C340.712067,262.351715 341.126160,265.083099 344.936035,264.524933 
	C347.616394,264.132263 350.626862,264.128174 352.898499,262.118866 
	C354.761658,260.470856 356.675446,260.655823 358.697723,261.607330 
	C358.506927,263.850006 355.415771,263.913361 355.882935,266.238556 
	C362.478333,272.411438 366.236481,272.924805 373.568787,268.573547 
	C376.173737,267.027649 378.916626,265.398987 381.938232,265.819366 
	C385.531738,266.319244 387.364044,265.208008 389.419220,262.121796 
	C395.027313,253.700150 404.353607,254.479706 409.416504,263.392792 
	C411.032776,266.238159 413.902679,266.403717 415.679291,263.521667 
	C417.787659,260.101471 418.936310,256.238892 419.607086,252.300003 
	C421.151093,243.233627 422.611786,234.145584 420.805542,224.970779 
	C417.907562,225.678101 417.737976,228.686508 415.937714,231.349121 
M267.696503,305.726166 
	C265.352570,303.578217 264.723541,299.499756 260.539307,299.420471 
	C254.895844,299.313538 249.387360,299.068115 244.120651,302.210815 
	C240.305466,304.487396 235.512619,304.279541 231.158188,305.180237 
	C229.721115,305.477448 228.275787,304.623260 228.056946,303.230957 
	C227.394943,299.019287 224.005600,297.813171 220.889008,296.321075 
	C218.115555,294.993286 215.794449,293.149506 213.970673,290.723480 
	C210.111816,285.590271 207.425674,285.442566 204.016403,291.097565 
	C201.122192,295.898254 198.210602,300.565094 194.191742,304.515228 
	C191.861298,306.805817 189.143448,307.620880 186.046524,307.099182 
	C183.425446,306.657623 181.610809,304.749634 181.832932,302.271545 
	C182.534561,294.443634 175.984558,294.410095 171.633957,291.451538 
	C169.659988,294.806030 170.523773,297.870331 170.372040,300.771606 
	C170.181839,304.408173 168.504761,306.322601 164.815750,306.344360 
	C161.650574,306.363037 158.484528,306.327393 155.320343,306.390594 
	C151.999695,306.456940 150.832626,307.796478 152.155243,311.193970 
	C153.668259,315.080627 154.655487,319.149048 155.179184,323.539825 
	C147.108078,321.766296 144.210434,323.555847 145.624283,329.451843 
	C146.754944,334.166901 146.042603,338.250488 143.971405,342.390656 
	C143.243561,343.845551 142.336990,345.649048 144.000565,346.936249 
	C145.924332,348.424713 147.435699,347.099182 148.611603,345.543304 
	C150.730301,342.739990 153.045776,342.369843 155.747498,344.731903 
	C156.654480,345.524841 157.720856,345.971222 159.480423,345.189758 
	C158.969025,341.978790 161.060104,339.580994 163.121155,337.208862 
	C164.658554,335.439423 166.458603,335.449951 168.518585,336.501373 
	C170.822159,337.677094 169.713135,339.344727 169.259872,340.782013 
	C168.461945,343.312439 167.233215,345.711395 166.496307,348.255615 
	C165.483978,351.750641 163.613052,353.734924 159.721512,353.392609 
	C157.886200,353.231140 155.729584,353.295593 155.069672,355.406158 
	C154.396713,357.558563 156.565826,358.514191 157.789429,359.766327 
	C159.552628,361.570648 162.958069,361.525452 163.537628,364.791901 
	C162.479004,366.411926 161.150055,366.360443 159.613068,365.659393 
	C157.934097,364.893555 156.289459,364.505646 154.332092,365.035553 
	C151.652176,365.761017 149.755936,364.835266 149.634216,361.645020 
	C149.560287,359.707092 148.548386,358.441376 146.517685,358.519348 
	C144.475128,358.597748 143.052505,359.788696 142.591263,361.768829 
	C142.129120,363.752869 142.873489,365.610962 143.329468,367.572205 
	C145.890945,378.589691 148.099274,383.329376 138.252182,389.768707 
	C138.073563,389.885498 138.147385,390.388306 138.005722,391.427917 
	C141.532501,391.505798 140.673111,397.164398 144.385849,396.898407 
	C149.192657,396.554016 153.614914,394.203308 157.961044,392.191162 
	C161.227356,390.679016 158.130112,387.649689 158.818787,385.433838 
	C159.513672,383.198029 160.233063,380.872040 163.242996,380.796021 
	C166.572861,380.711945 166.533966,383.175049 166.309830,385.300140 
	C166.017609,388.070709 168.189178,389.818451 168.797379,392.218842 
	C166.960480,394.291412 163.970444,396.150177 167.958282,398.932007 
	C171.615997,401.483582 174.228912,401.142578 176.530792,397.258881 
	C178.045670,394.703064 180.006546,392.660797 182.768845,391.803833 
	C186.967865,390.501129 188.105026,388.306946 186.634018,384.033905 
	C185.228500,379.951172 186.784317,378.755981 191.508377,379.623444 
	C191.433395,386.547180 193.103394,389.810852 197.635910,390.424652 
	C200.886459,390.864868 204.259857,391.146637 207.491165,389.815704 
	C213.812378,387.212158 220.102768,385.900696 226.160675,390.559784 
	C226.671112,390.952301 227.352753,391.203827 227.992722,391.332489 
	C231.093170,391.955780 233.616501,391.492401 234.635284,387.908356 
	C235.036865,386.495605 235.940811,385.229828 236.384720,383.824097 
	C237.581345,380.034729 241.568253,380.775818 244.072174,379.083221 
	C248.157822,376.321472 250.878342,372.305603 254.071365,368.489563 
	C258.698090,375.849518 259.796082,376.691650 263.609833,376.594513 
	C266.688965,376.516083 267.806091,375.455597 266.731201,372.211884 
	C262.226257,358.617126 262.282074,358.524902 276.365540,357.690277 
	C280.041718,357.472412 280.495361,356.279602 279.176147,352.990479 
	C277.070679,347.741028 276.030670,342.363525 277.387360,336.514282 
	C278.433105,332.005524 281.419098,327.377411 278.513397,322.566559 
	C275.187378,317.059753 271.646362,311.682831 267.696503,305.726166 
M293.437408,346.698120 
	C298.448517,347.069397 301.073578,351.473969 305.004730,353.899628 
	C306.621674,351.277222 305.500610,348.746948 305.572998,346.347137 
	C305.658966,343.498871 307.056030,341.859741 309.499908,342.833405 
	C313.687561,344.501862 316.635620,342.462555 320.010223,340.767120 
	C324.953339,338.283600 332.304535,341.659790 333.297943,346.930328 
	C333.945984,350.368500 336.087860,350.701447 338.726959,350.600006 
	C341.899872,350.478027 344.695435,350.831757 346.104309,354.299805 
	C346.852081,356.140411 347.805511,358.339142 350.293549,357.787720 
	C352.781769,357.236298 352.487366,354.858185 352.655426,352.861237 
	C353.127136,347.256287 354.130127,341.741058 360.059540,339.279724 
	C363.548798,337.831299 366.995575,336.024139 370.869141,335.675964 
	C372.241425,335.552612 373.818176,335.500275 374.285309,334.091492 
	C376.467133,327.511414 382.093506,326.003387 387.835052,324.650665 
	C389.585358,324.238342 391.275879,323.523712 391.432983,321.689514 
	C392.005798,315.001312 395.221924,309.221558 397.606750,303.234741 
	C391.026184,297.243103 378.041870,298.667114 375.781952,306.015778 
	C374.099457,311.486908 369.911285,313.769470 366.166870,317.460358 
	C365.893188,311.902313 375.203644,298.235596 379.786713,296.955841 
	C380.887787,296.648346 382.090668,296.686859 383.249603,296.608795 
	C385.781433,296.438293 387.390137,295.111389 387.515564,292.597565 
	C387.797302,286.951447 387.952026,281.358704 385.175049,276.045197 
	C381.481842,268.978546 378.439880,268.432159 373.177307,273.600525 
	C368.988739,277.714111 364.350006,276.938385 359.382843,273.893524 
	C354.687042,271.015015 350.157440,265.668762 343.430054,270.017822 
	C341.924683,270.990997 340.040344,270.190216 338.764008,269.120972 
	C336.101624,266.890564 332.927917,266.119385 329.701111,265.335388 
	C326.830017,264.637848 325.007233,262.951843 323.410339,260.262878 
	C319.174500,253.130127 313.740631,247.657196 304.210083,249.298386 
	C300.933563,249.862610 297.636414,249.392578 294.860687,246.918411 
	C292.575348,244.881348 290.567993,245.127762 288.779694,248.040573 
	C286.649689,251.509888 284.750549,256.223663 281.517853,257.703430 
	C272.366791,261.892303 271.205292,268.467224 273.334717,276.952942 
	C273.614746,278.068817 273.615051,279.254272 273.753357,280.406464 
	C274.564087,287.161469 275.954254,294.003082 270.467102,299.705200 
	C269.766937,300.432770 269.207794,301.689911 270.011414,302.430450 
	C274.241089,306.328186 274.954498,312.527649 278.729706,316.391693 
	C282.985535,320.747650 283.879028,325.481781 283.301819,330.944946 
	C282.920105,334.558167 282.173676,338.131287 281.698853,341.736633 
	C281.168701,345.762054 281.939819,349.484253 284.430359,352.974518 
	C287.078186,350.363251 288.629395,346.881592 293.437408,346.698120 
M210.373291,36.335773 
	C212.783539,38.231773 215.325684,40.261978 213.898468,43.758652 
	C211.653198,49.259567 207.175903,51.143158 201.506638,50.176983 
	C200.932083,57.582664 200.092117,58.383900 192.934616,58.360180 
	C189.777176,58.349720 186.490173,58.679878 183.497925,57.922855 
	C180.175919,57.082409 178.726562,58.712322 177.604248,61.018021 
	C176.366623,63.560600 174.328354,66.135300 177.820129,68.885513 
	C181.261658,71.596153 183.557129,75.264626 184.809265,79.570526 
	C185.280502,81.191025 185.365799,83.489807 187.926865,83.460571 
	C189.989075,83.437027 191.260193,81.964966 192.186386,80.382629 
	C193.016266,78.964874 193.426895,76.631493 195.288757,76.931496 
	C201.903992,77.997437 205.685715,73.990425 209.489471,69.753853 
	C209.901688,69.294739 210.605759,68.890236 211.206451,68.839500 
	C218.094406,68.257759 224.960876,68.572662 230.959290,72.325851 
	C236.721924,75.931511 236.816071,80.621788 231.796539,85.326736 
	C230.223785,86.800926 228.739426,88.223671 228.339645,90.611977 
	C227.424759,96.077553 226.157822,96.886925 220.596664,95.779091 
	C217.638519,95.189789 215.868011,95.800797 214.122467,98.683739 
	C211.341583,103.276649 207.319946,107.184448 202.889694,110.091743 
	C197.503571,113.626312 197.084946,113.737122 202.072906,118.243172 
	C204.779434,120.688225 204.316727,122.457794 201.163040,123.720993 
	C199.329315,124.455490 197.377991,124.911263 195.458740,125.412651 
	C193.923035,125.813843 192.558929,126.283699 192.760681,128.379089 
	C196.891891,132.127838 203.208069,125.286819 207.258835,131.142334 
	C205.519638,133.006287 203.484985,134.391068 203.315613,137.244293 
	C206.775162,138.688370 208.840149,141.137421 210.299438,144.815445 
	C211.245911,147.200897 214.426910,149.069550 217.910141,148.176880 
	C221.192047,147.335785 224.444809,147.864929 227.777374,148.240631 
	C235.545486,149.116409 243.111725,149.603394 249.784134,143.545135 
	C254.069580,139.654160 258.140259,135.140701 264.535065,133.849609 
	C272.969238,132.146744 280.440796,121.230629 279.544617,112.774292 
	C279.301941,110.484810 278.369415,108.271248 278.093353,105.981865 
	C277.644409,102.259415 275.572540,98.578278 277.325287,94.768326 
	C278.798004,91.567047 277.537811,90.110413 274.669861,88.573311 
	C268.190582,85.100624 263.642395,80.326706 264.577179,72.025604 
	C265.652740,62.474613 261.318024,54.321274 257.229431,46.129997 
	C253.984268,39.628525 246.983429,40.033546 241.685547,37.310158 
	C241.389999,37.158230 241.089417,37.005711 240.775162,36.902092 
	C231.621277,33.883930 222.444901,30.965485 212.621353,31.365360 
	C209.541687,31.490719 207.353851,32.221104 210.373291,36.335773 
M179.338593,147.166733 
	C179.202255,148.646469 179.316711,150.315384 177.077271,150.220993 
	C172.998642,144.767044 172.998642,144.767044 169.505188,147.009995 
	C169.792053,148.689301 172.070404,149.215408 171.886337,151.843613 
	C167.988983,152.996613 166.732269,157.638748 163.434784,160.004517 
	C161.553223,158.735168 161.872131,157.467407 162.187500,156.136108 
	C162.751617,153.754715 165.971115,151.312012 163.107864,148.976791 
	C159.419769,145.968857 158.517746,150.682770 156.335953,152.026810 
	C151.651337,154.912628 153.519119,160.410110 151.254517,164.266556 
	C150.772110,165.088043 152.303223,166.278000 153.482895,166.545731 
	C158.313660,167.642166 159.533600,171.784531 160.103531,175.567413 
	C160.829803,180.388168 162.691498,180.883377 166.823868,179.396500 
	C173.314270,177.061142 176.497604,179.278091 176.251099,186.156555 
	C176.075409,191.058975 177.985870,195.220871 179.495438,199.580765 
	C180.141159,201.445755 181.284927,202.958344 183.570572,202.209000 
	C187.844223,200.807907 189.036087,202.524155 188.413910,206.573456 
	C187.645630,211.573563 188.573792,216.845215 189.922363,221.246643 
	C191.471085,226.301300 196.107864,230.442123 199.563293,234.854553 
	C200.304993,235.801682 201.775406,235.576355 202.804672,234.835571 
	C206.764343,231.985733 211.491074,230.496231 214.481964,225.921555 
	C218.021408,220.507828 223.675201,220.607834 228.274414,225.206329 
	C229.889008,226.820663 231.686218,227.731400 234.037460,227.660004 
	C237.197906,227.564041 240.366684,227.737396 243.526764,227.635681 
	C248.175934,227.486038 251.683929,229.375854 253.606323,233.556290 
	C255.562332,237.809891 259.053497,238.006592 262.831390,237.545837 
	C265.521301,237.217743 268.423492,236.430695 269.265991,233.586121 
	C270.368256,229.864319 269.228180,226.389908 266.467773,223.522842 
	C264.106140,221.069977 261.764954,219.785767 258.919434,222.916199 
	C257.247101,224.755997 254.892624,224.842407 252.894348,223.956177 
	C245.586594,220.715240 241.686279,211.406662 244.314377,203.919815 
	C245.138885,201.570953 246.150803,199.287460 246.961334,196.934235 
	C248.159897,193.454361 248.292892,189.863602 245.772202,187.017563 
	C243.359070,184.292984 243.599335,181.675217 244.825790,178.742767 
	C245.977905,175.988052 247.181961,173.253403 248.263321,170.471130 
	C250.448730,164.848312 244.868805,153.269257 239.116470,152.649963 
	C233.201920,152.013199 226.637115,151.088196 221.295822,152.963577 
	C213.615204,155.660339 207.326920,153.433975 200.648483,151.021469 
	C198.792953,150.351181 197.157990,148.905960 195.275757,148.509216 
	C191.711655,147.757889 190.405243,145.316544 189.745224,142.252487 
	C188.623611,137.045670 185.417709,134.377670 180.121994,134.417725 
	C176.390686,134.445953 175.195404,136.140747 176.856049,139.479187 
	C177.962433,141.703354 179.579071,143.681198 179.338593,147.166733 
M274.340729,236.743195 
	C272.345184,236.515564 270.842957,237.509598 269.416382,238.713791 
	C264.710144,242.686417 258.217651,242.581390 254.098175,238.126709 
	C250.467560,234.200668 246.162155,232.580460 240.886322,232.236389 
	C235.452377,231.882019 230.005432,230.946335 225.050690,228.376572 
	C222.189850,226.892776 219.873169,227.238144 217.364182,229.462433 
	C212.285263,233.965042 207.121872,238.450180 200.186691,240.034973 
	C198.947739,240.318100 197.911636,240.942474 197.268356,242.419312 
	C195.421738,246.658661 193.031937,250.608704 191.727524,255.149979 
	C190.331024,260.011780 187.455460,264.057587 182.774933,266.578583 
	C179.946289,268.102142 178.086517,270.588562 176.574051,273.269257 
	C181.470459,278.595795 181.669281,280.639313 177.746887,286.364594 
	C175.988083,288.931824 176.227921,290.614655 179.390564,291.555542 
	C185.950439,293.507050 187.217712,295.414337 186.315704,301.820129 
	C190.730942,302.641449 194.593262,300.507385 196.637512,296.416412 
	C198.188171,293.313202 199.814590,290.207031 201.782974,287.362122 
	C205.564392,281.896881 208.945145,281.319427 214.260849,285.453430 
	C219.346237,289.408325 224.661270,293.106537 229.123840,297.839539 
	C231.936371,300.822510 235.164536,301.567963 238.920517,299.246155 
	C242.646591,296.942902 246.870590,296.214264 251.159256,295.419006 
	C255.651260,294.586029 260.100555,294.851624 264.567810,294.608368 
	C269.132812,294.359802 272.499969,291.696564 271.398712,288.618805 
	C269.284454,282.709991 270.214142,276.388031 268.289703,270.530548 
	C266.846130,266.136749 267.895294,262.452087 271.951324,260.303802 
	C279.662231,256.219696 283.066315,248.691971 287.934296,241.832413 
	C283.349579,240.117386 279.183899,238.559097 274.340729,236.743195 
M265.894318,202.987915 
	C267.906769,206.555771 267.685455,210.346588 266.855682,214.134705 
	C266.563873,215.466904 265.958862,216.994537 266.764282,218.000534 
	C270.804474,223.046982 273.061096,229.404083 277.935455,233.757446 
	C280.831726,236.344162 285.060791,238.754623 288.212830,235.446762 
	C292.637207,230.803680 297.126404,226.162262 301.310516,221.285034 
	C303.387726,218.863724 302.476196,216.241592 299.325439,215.586502 
	C291.073303,213.870850 289.451569,207.578217 288.709503,200.742599 
	C288.011536,194.312790 287.888947,187.763824 285.341614,181.723526 
	C283.715149,177.866928 286.407318,175.139175 288.645660,175.683319 
	C294.905518,177.205048 294.896210,173.449875 297.502106,169.498840 
	C301.851929,162.903717 307.860565,156.167114 317.764465,157.628510 
	C319.232300,157.845093 320.760345,157.625381 322.258789,157.668228 
	C327.332550,157.813339 331.110809,155.859909 333.939087,151.471542 
	C336.511475,147.480164 338.231812,142.527878 343.967621,141.418350 
	C341.217041,137.660110 337.627655,136.518631 333.941345,135.357483 
	C325.960602,132.843628 317.232117,131.862686 311.407867,124.710114 
	C310.543243,123.648338 309.147644,123.316513 307.758331,123.377159 
	C303.030640,123.583534 298.010437,122.189247 293.930237,125.956955 
	C292.783417,127.015976 291.268799,126.674713 290.119049,126.223671 
	C284.449280,123.999397 280.691406,126.778488 277.003967,130.609558 
	C272.758453,135.020477 268.148376,139.042953 261.761963,140.107941 
	C258.820679,140.598404 256.623901,142.291412 254.625534,144.387741 
	C245.602158,153.853409 246.330551,149.583420 252.331787,161.531006 
	C254.553787,165.954697 255.455414,170.294189 251.647766,174.419327 
	C249.858017,176.358292 249.201370,178.710144 249.375809,181.331970 
	C249.759048,187.092636 253.306213,191.408875 255.967209,196.161423 
	C257.405823,198.730804 259.772461,198.384979 261.970306,198.927002 
	C263.675537,199.347519 264.655640,200.794846 265.894318,202.987915 
M181.939743,81.668625 
	C181.602142,79.964348 180.541122,78.713310 179.435410,77.443077 
	C171.949265,68.843254 171.955414,68.823677 162.025848,74.343948 
	C160.783859,75.034424 158.863876,75.410873 159.254333,77.359390 
	C159.655853,79.363106 161.410370,80.712082 163.258286,80.483154 
	C170.100052,79.635567 171.393646,84.128983 172.742325,89.259155 
	C174.025406,94.139809 175.320450,99.271584 180.462830,101.895889 
	C184.098633,98.220360 187.617599,96.912468 191.600647,97.993820 
	C193.985870,98.641380 196.247299,99.597031 198.355820,101.050262 
	C201.326294,103.097565 204.629837,103.556595 207.490463,100.819466 
	C211.807678,96.688675 212.793030,92.533676 210.323654,88.839630 
	C208.662140,86.354073 206.570541,84.120644 204.011871,82.536377 
	C198.738358,79.271103 196.291840,79.726700 192.614914,84.760170 
	C190.739334,87.327736 188.641937,89.554779 185.322571,88.979675 
	C181.595688,88.333969 183.156738,84.666733 181.939743,81.668625 
M408.910828,289.271301 
	C409.366577,288.806885 410.210999,288.348236 410.217957,287.877167 
	C410.287201,283.202393 409.284546,278.457550 412.382355,274.145142 
	C413.140381,273.089844 411.740601,271.212067 410.235168,271.678131 
	C405.087097,273.271820 405.862396,269.782379 405.525574,266.800537 
	C405.086029,262.909607 403.933716,259.713470 398.747223,260.333557 
	C393.221954,260.994171 388.086395,269.166412 389.856384,275.508423 
	C391.332733,280.798309 392.720917,286.003571 391.248749,291.526093 
	C390.679047,293.663269 391.645935,295.266205 393.672913,295.771118 
	C396.271393,296.418365 398.797119,298.408203 401.647034,296.751160 
	C402.542511,296.230469 403.051392,295.244324 402.677399,294.157349 
	C400.500763,287.831482 404.623718,288.982727 408.910828,289.271301 
M212.252472,85.244629 
	C214.223434,87.828033 217.217957,89.010117 219.791992,90.771072 
	C221.690842,92.070107 222.793457,91.977211 223.968231,89.615509 
	C225.116867,87.306320 227.023590,85.341438 228.758820,83.367157 
	C230.153931,81.779846 231.138321,80.209251 230.555954,78.615387 
	C222.561844,72.740410 214.784943,68.333763 206.547318,77.307617 
	C207.911011,80.274429 209.484665,82.751122 212.252472,85.244629 
M251.313797,217.203964 
	C253.882660,219.389633 256.537628,220.899368 259.642883,218.125519 
	C264.147614,214.101578 263.432892,206.398193 258.251404,203.469208 
	C257.059967,202.795715 256.259491,201.984711 255.572601,200.738632 
	C253.581390,197.126297 251.361115,197.196381 249.113800,200.742569 
	C246.035141,205.600693 246.710358,212.063690 251.313797,217.203964 
z"/>
<path fill="#000000" opacity="1.000000" stroke="none" 
	d="
M216.465988,307.565369 
	C220.428040,311.648010 221.891357,316.151489 221.407959,321.475708 
	C221.179718,323.989502 220.296417,325.592560 217.856888,326.175659 
	C212.702133,327.407684 207.504196,328.326111 202.195404,327.320557 
	C197.207306,326.375671 196.093414,324.592865 197.730118,319.751373 
	C198.388779,317.803009 198.355927,316.166840 197.114288,314.619812 
	C194.866028,311.818573 195.370758,308.983978 197.167328,306.338165 
	C199.280243,303.226471 202.468369,301.721619 206.160034,302.224945 
	C209.999298,302.748444 213.476242,304.383575 216.465988,307.565369 
M215.540161,314.000183 
	C213.450455,311.485565 211.928741,308.381042 208.707108,307.018036 
	C206.346924,306.019440 203.645935,305.638336 201.559006,307.066620 
	C199.221848,308.666138 200.465607,311.189606 201.103226,313.405884 
	C201.601715,315.138519 202.537582,317.048767 202.207901,318.661041 
	C201.084015,324.157257 204.477951,323.948730 207.957596,323.540161 
	C217.080444,322.469055 218.170212,321.178253 215.540161,314.000183 
z"/>
</svg>